<svg width="181" height="140" viewBox="0 0 181 140" fill="none" xmlns="http://www.w3.org/2000/svg">
<path fill-rule="evenodd" clip-rule="evenodd" d="M109.482 18.3959H123.797V10.2144H109.482V18.3959ZM108.604 26.5775V36.1817C108.407 43.6562 108.882 46.2439 109.824 49.0781C111.516 54.1759 111.004 60.1628 108.561 63.824C106.951 66.2376 106.712 67.2119 106.89 70.642V74.9851H122.919V26.5775H108.604Z" fill="#696B6A"/>
<path fill-rule="evenodd" clip-rule="evenodd" d="M125 3.21436H44V58.2144C44 70.9169 54.2975 81.2144 67 81.2144H137V15.2144C137 8.58694 131.627 3.21436 125 3.21436ZM41 0.214355V58.2144C41 72.5738 52.6406 84.2144 67 84.2144H140V15.2144C140 6.93008 133.284 0.214355 125 0.214355H41Z" fill="#696B6A"/>
<path fill-rule="evenodd" clip-rule="evenodd" d="M101.968 102.913L101.907 102.772L101.968 102.829V102.772L102.009 102.867L118.312 117.914L118.331 117.961L118.552 106.137H124.437V132.52L124.561 132.816L108.217 117.215V128.249H101.968V102.913Z" fill="#696B6A"/>
<path fill-rule="evenodd" clip-rule="evenodd" d="M165.252 113.256L154.302 102.772V111.425L160.767 117.615L137.959 139.786H146.13L164.884 121.556L176.895 133.056V124.403L169.369 117.198L180.5 106.377H172.328L165.252 113.256Z" fill="#696B6A"/>
<path fill-rule="evenodd" clip-rule="evenodd" d="M139.401 110.62C134.011 110.62 129.943 114.809 129.943 119.611C129.943 124.413 134.011 128.603 139.401 128.603C144.791 128.603 148.858 124.413 148.858 119.611C148.858 114.809 144.791 110.62 139.401 110.62ZM124.343 119.611C124.343 111.568 131.069 105.02 139.401 105.02C147.733 105.02 154.458 111.568 154.458 119.611C154.458 127.654 147.733 134.203 139.401 134.203C131.069 134.203 124.343 127.654 124.343 119.611Z" fill="#696B6A"/>
<path fill-rule="evenodd" clip-rule="evenodd" d="M99.2629 101.214L93.735 105.541V110.828L99.2629 106.502V101.214ZM99.2629 108.425L93.735 112.751L93.9753 127.893H99.5033L99.2629 108.425Z" fill="#696B6A"/>
<path d="M57.8838 10.948L63.4032 10.7203C86.9543 9.74734 92.4485 10.3235 98.3552 14.3883C100.989 16.2005 103.347 18.7559 103.347 19.797C103.347 20.0254 100.816 21.539 97.7226 23.1596L92.0975 26.1064L88.805 23.7855C85.884 21.7265 85.0367 21.4702 81.3073 21.5192C78.9951 21.5492 75.9528 21.7933 74.5465 22.0613L71.9902 22.5488V36.8044H74.7169C76.2166 36.8044 77.4436 36.9735 77.4436 37.1801C77.4436 37.3867 75.2527 41.2579 72.5758 45.7837C66.9629 55.2702 65.6786 58.3192 63.1476 68.1671L61.3078 75.326L59.1019 75.2203C57.8885 75.1617 56.8224 75.0083 56.7338 74.8794C56.6452 74.7499 56.8674 60.3128 57.228 42.7961L57.8838 10.948Z" fill="#93221E"/>
<path d="M90.8555 35.3031C91.9182 34.2893 95.5474 31.9112 98.9196 30.0172L105.051 26.5741L105.269 29.0695C105.424 30.8414 104.852 32.8153 103.297 35.8813L101.106 40.1977L102.876 42.7627C106.329 47.763 107.608 51.6363 107.302 56.1593C107.147 58.4508 106.456 61.4971 105.766 62.9289C104.021 66.5492 99.2693 71.1084 95.0477 73.2124C91.681 74.8903 90.9304 74.9851 81.0128 74.9851H70.897L71.5128 69.477L72.0751 64.2014C72.0751 64.2014 75.2338 64.1178 80.1546 63.9652C87.274 63.745 87.668 63.6536 89.6373 61.7643C94.6824 56.9263 92.4908 49.0086 85.5302 46.923C84.0817 46.4887 82.897 46.0073 82.897 45.8526C82.897 45.194 89.0865 36.9892 90.8555 35.3031Z" fill="#93221E"/>
<path d="M78.8335 129.691V107.099H85.5632V103.253H65.3742V107.099H72.1038V129.691H78.8335Z" fill="#93221E"/>
<path d="M24.0346 103.253V129.691H39.8975V125.846H30.7643V118.154H38.9361V114.79H30.7643V107.099H39.4168V103.253H24.0346Z" fill="#93221E"/>
<path d="M0.429321 130.652V102.772H11.1718C13.1997 102.772 14.8851 103.09 16.2279 103.725C17.5799 104.351 18.5893 105.209 19.2561 106.298C19.9321 107.387 20.2701 108.621 20.2701 110.001C20.2701 111.135 20.0508 112.106 19.6124 112.914C19.1739 113.713 18.5847 114.362 17.8448 114.861C17.1049 115.36 16.2782 115.719 15.3647 115.936V116.209C16.3604 116.263 17.315 116.567 18.2284 117.121C19.151 117.665 19.9047 118.437 20.4893 119.435C21.0739 120.433 21.3663 121.64 21.3663 123.056C21.3663 124.499 21.0145 125.797 20.3112 126.95C19.6078 128.093 18.5482 128.996 17.1323 129.659C15.7164 130.321 13.9351 130.652 11.7884 130.652H0.429321ZM5.51283 126.432H10.98C12.8252 126.432 14.1543 126.083 14.9673 125.384C15.7894 124.676 16.2005 123.769 16.2005 122.661C16.2005 121.836 15.995 121.091 15.584 120.429C15.1728 119.757 14.5882 119.231 13.8301 118.85C13.0719 118.459 12.1675 118.264 11.117 118.264H5.51283V126.432ZM5.51283 114.63H10.5416C11.4185 114.63 12.2086 114.471 12.912 114.153C13.6154 113.826 14.168 113.368 14.57 112.778C14.981 112.179 15.1866 111.471 15.1866 110.654C15.1866 109.574 14.8029 108.685 14.0356 107.986C13.2774 107.287 12.1493 106.938 10.6512 106.938H5.51283V114.63Z" fill="#93221E"/>
<path d="M57.8504 110.995C57.7282 109.851 57.2129 108.96 56.3046 108.323C55.4051 107.685 54.2349 107.366 52.7939 107.366C51.7808 107.366 50.9119 107.519 50.187 107.825C49.4622 108.13 48.9076 108.545 48.5233 109.069C48.1391 109.593 47.9426 110.192 47.9338 110.864C47.9338 111.423 48.0605 111.908 48.3137 112.318C48.5758 112.729 48.9294 113.078 49.3749 113.366C49.8202 113.646 50.3136 113.881 50.8551 114.073C51.3965 114.266 51.9424 114.427 52.4926 114.558L55.0078 115.187C56.0208 115.423 56.9946 115.741 57.929 116.143C58.8722 116.545 59.7149 117.051 60.4573 117.663C61.2083 118.274 61.8022 119.012 62.2389 119.877C62.6755 120.741 62.8939 121.754 62.8939 122.916C62.8939 124.488 62.4921 125.872 61.6887 127.068C60.8852 128.256 59.7237 129.186 58.2041 129.859C56.6933 130.522 54.8637 130.854 52.7153 130.854C50.628 130.854 48.8159 130.531 47.2789 129.885C45.7505 129.239 44.5541 128.295 43.6895 127.055C42.8336 125.815 42.3708 124.304 42.3009 122.523H47.0824C47.1522 123.457 47.4404 124.235 47.947 124.855C48.4535 125.475 49.1128 125.938 49.925 126.243C50.746 126.549 51.6629 126.702 52.676 126.702C53.7327 126.702 54.6584 126.544 55.4532 126.23C56.2566 125.907 56.8854 125.462 57.3395 124.894C57.7937 124.317 58.0251 123.645 58.0338 122.877C58.0251 122.178 57.8198 121.601 57.4181 121.147C57.0164 120.684 56.4531 120.3 55.7282 119.995C55.0121 119.68 54.1737 119.401 53.2131 119.156L50.1608 118.37C47.9513 117.803 46.2047 116.942 44.9209 115.789C43.6458 114.628 43.0083 113.087 43.0083 111.165C43.0083 109.585 43.4362 108.2 44.2921 107.013C45.1567 105.825 46.3313 104.904 47.8159 104.249C49.3006 103.585 50.9818 103.253 52.8594 103.253C54.7632 103.253 56.4313 103.585 57.8635 104.249C59.3045 104.904 60.4354 105.816 61.2564 106.986C62.0773 108.148 62.5008 109.484 62.5271 110.995H57.8504Z" fill="#93221E"/>
</svg>
