<svg width="181" height="141" viewBox="0 0 181 141" fill="none" xmlns="http://www.w3.org/2000/svg">
<path d="M57.7094 11.5661L63.2289 11.3384C86.7799 10.3654 92.2742 10.9415 98.1809 15.0064C100.815 16.8186 103.173 19.374 103.173 20.4151C103.173 20.6435 100.642 22.1571 97.5483 23.7777L91.9231 26.7245L88.6307 24.4036C85.7097 22.3446 84.8624 22.0882 81.133 22.1373C78.8208 22.1673 75.7785 22.4114 74.3722 22.6794L71.8159 23.1668V37.4225H74.5426C76.0423 37.4225 77.2693 37.5916 77.2693 37.7982C77.2693 38.0048 75.0784 41.876 72.4015 46.4018C66.7886 55.8883 65.5043 58.9373 62.9733 68.7852L61.1335 75.9441L58.9276 75.8384C57.7142 75.7797 56.6481 75.6263 56.5595 75.4975C56.4708 75.3679 56.6931 60.9309 57.0537 43.4142L57.7094 11.5661Z" fill="white"/>
<path d="M109.308 19.014V10.8325H123.623V19.014H109.308Z" fill="white"/>
<path d="M108.429 27.1956H122.744V75.6032H106.715V71.2601C106.537 67.83 106.777 66.8557 108.387 64.4421C110.829 60.7809 111.342 54.794 109.649 49.6962C108.708 46.862 108.232 44.2743 108.429 36.7998V27.1956Z" fill="white"/>
<path d="M90.6811 35.9212C91.7439 34.9074 95.3731 32.5293 98.7453 30.6352L104.877 27.1922L105.095 29.6875C105.25 31.4595 104.678 33.4333 103.122 36.4994L100.931 40.8158L102.702 43.3808C106.154 48.3811 107.434 52.2543 107.128 56.7774C106.973 59.0689 106.282 62.1152 105.592 63.5469C103.846 67.1673 99.095 71.7265 94.8734 73.8305C91.5066 75.5084 90.7561 75.6032 80.8385 75.6032H70.7227L71.3385 70.0951L71.9008 64.8195C71.9008 64.8195 75.0594 64.7359 79.9803 64.5833C87.0996 64.3631 87.4937 64.2717 89.463 62.3824C94.508 57.5444 92.3165 49.6267 85.3559 47.5411C83.9074 47.1068 82.7226 46.6254 82.7226 46.4707C82.7226 45.812 88.9122 37.6073 90.6811 35.9212Z" fill="white"/>
<path fill-rule="evenodd" clip-rule="evenodd" d="M40.8257 0.832458H124.826C133.11 0.832458 139.826 7.54819 139.826 15.8325V84.8325H66.8257C52.4663 84.8325 40.8257 73.1919 40.8257 58.8325V0.832458ZM43.8257 3.83246H124.826C131.453 3.83246 136.826 9.20504 136.826 15.8325V81.8325H66.8257C54.1231 81.8325 43.8257 71.535 43.8257 58.8325V3.83246Z" fill="white"/>
<path d="M101.794 103.531L101.732 103.39L101.794 103.447V103.39L101.835 103.485L118.137 118.532L118.157 118.579L118.378 106.755H124.262V133.138L124.386 133.434L108.043 117.833V128.867H101.794V103.531Z" fill="white"/>
<path d="M165.077 113.874L154.128 103.39V112.043L160.593 118.233L137.784 140.404H145.956L164.71 122.175L176.72 133.674V125.022L169.194 117.816L180.326 106.996H172.154L165.077 113.874Z" fill="white"/>
<path fill-rule="evenodd" clip-rule="evenodd" d="M139.226 111.238C133.836 111.238 129.769 115.428 129.769 120.229C129.769 125.031 133.836 129.221 139.226 129.221C144.616 129.221 148.684 125.031 148.684 120.229C148.684 115.428 144.616 111.238 139.226 111.238ZM124.169 120.229C124.169 112.186 130.894 105.638 139.226 105.638C147.558 105.638 154.284 112.186 154.284 120.229C154.284 128.272 147.558 134.821 139.226 134.821C130.894 134.821 124.169 128.272 124.169 120.229Z" fill="white"/>
<path d="M99.0886 101.832L93.5606 106.159V111.446L99.0886 107.12V101.832Z" fill="white"/>
<path d="M99.0886 109.043L93.5606 113.369L93.801 128.511H99.3289L99.0886 109.043Z" fill="white"/>
<path d="M78.6592 130.309V107.717H85.3889V103.871H65.1998V107.717H71.9295V130.309H78.6592Z" fill="white"/>
<path d="M23.8603 103.871V130.309H39.7232V126.464H30.59V118.773H38.7618V115.408H30.59V107.717H39.2424V103.871H23.8603Z" fill="white"/>
<path d="M0.255005 131.271V103.39H10.9975C13.0254 103.39 14.7108 103.708 16.0536 104.343C17.4055 104.97 18.415 105.827 19.0818 106.916C19.7578 108.005 20.0958 109.24 20.0958 110.619C20.0958 111.753 19.8765 112.725 19.4381 113.532C18.9996 114.331 18.4104 114.98 17.6704 115.479C16.9305 115.978 16.1039 116.337 15.1904 116.555V116.827C16.1861 116.881 17.1407 117.185 18.0541 117.739C18.9767 118.283 19.7304 119.055 20.315 120.053C20.8996 121.051 21.1919 122.259 21.1919 123.674C21.1919 125.117 20.8402 126.415 20.1369 127.568C19.4335 128.711 18.3739 129.614 16.958 130.277C15.5421 130.939 13.7608 131.271 11.6141 131.271H0.255005ZM5.33851 127.05H10.8057C12.6509 127.05 13.98 126.701 14.793 126.002C15.6151 125.294 16.0262 124.387 16.0262 123.28C16.0262 122.454 15.8207 121.709 15.4096 121.047C14.9985 120.375 14.4139 119.849 13.6558 119.468C12.8976 119.078 11.9932 118.882 10.9427 118.882H5.33851V127.05ZM5.33851 115.248H10.3672C11.2442 115.248 12.0343 115.089 12.7377 114.771C13.4411 114.444 13.9937 113.986 14.3957 113.396C14.8067 112.797 15.0123 112.089 15.0123 111.273C15.0123 110.192 14.6286 109.303 13.8613 108.604C13.1031 107.905 11.975 107.556 10.4769 107.556H5.33851V115.248Z" fill="white"/>
<path d="M57.6761 111.613C57.5539 110.469 57.0386 109.578 56.1303 108.941C55.2308 108.303 54.0606 107.984 52.6195 107.984C51.6065 107.984 50.7376 108.137 50.0127 108.443C49.2878 108.749 48.7333 109.163 48.349 109.687C47.9648 110.211 47.7683 110.81 47.7595 111.482C47.7595 112.041 47.8862 112.526 48.1394 112.936C48.4014 113.347 48.7551 113.696 49.2005 113.984C49.6459 114.264 50.1393 114.499 50.6808 114.692C51.2222 114.884 51.7681 115.045 52.3183 115.176L54.8335 115.805C55.8465 116.041 56.8203 116.36 57.7547 116.761C58.6979 117.163 59.5406 117.67 60.283 118.281C61.034 118.892 61.6279 119.63 62.0646 120.495C62.5012 121.359 62.7196 122.372 62.7196 123.534C62.7196 125.106 62.3178 126.49 61.5143 127.687C60.7109 128.874 59.5494 129.804 58.0298 130.477C56.5189 131.141 54.6894 131.472 52.541 131.472C50.4537 131.472 48.6416 131.149 47.1045 130.503C45.5762 129.857 44.3798 128.914 43.5152 127.673C42.6593 126.433 42.1965 124.922 42.1266 123.141H46.908C46.9779 124.075 47.2661 124.853 47.7727 125.473C48.2792 126.093 48.9385 126.556 49.7507 126.861C50.5716 127.167 51.4886 127.32 52.5017 127.32C53.5584 127.32 54.4841 127.163 55.2789 126.848C56.0823 126.525 56.7111 126.08 57.1652 125.512C57.6194 124.936 57.8508 124.263 57.8595 123.495C57.8508 122.796 57.6455 122.22 57.2438 121.765C56.8421 121.303 56.2788 120.918 55.5539 120.613C54.8378 120.298 53.9994 120.019 53.0387 119.774L49.9865 118.988C47.777 118.421 46.0304 117.56 44.7466 116.408C43.4715 115.246 42.834 113.705 42.834 111.783C42.834 110.203 43.2619 108.818 44.1178 107.631C44.9824 106.443 46.157 105.522 47.6416 104.867C49.1263 104.203 50.8075 103.871 52.6851 103.871C54.5889 103.871 56.257 104.203 57.6892 104.867C59.1302 105.522 60.2611 106.434 61.0821 107.605C61.903 108.766 62.3265 110.102 62.3527 111.613H57.6761Z" fill="white"/>
</svg>
